<?xml version="1.0" encoding="UTF-8" standalone="no"?>
<svg
   xmlns:dc="http://purl.org/dc/elements/1.1/"
   xmlns:cc="http://creativecommons.org/ns#"
   xmlns:rdf="http://www.w3.org/1999/02/22-rdf-syntax-ns#"
   xmlns:svg="http://www.w3.org/2000/svg"
   xmlns="http://www.w3.org/2000/svg"
   xmlns:sodipodi="http://sodipodi.sourceforge.net/DTD/sodipodi-0.dtd"
   xmlns:inkscape="http://www.inkscape.org/namespaces/inkscape"
   width="40.40625pt"
   height="40.40625pt"
   viewBox="0 0 40.40625 40.40625"
   version="1.1"
   id="svg3760"
   sodipodi:docname="logo.svg"
   inkscape:version="0.92.4 (5da689c313, 2019-01-14)">
  <metadata
     id="metadata3766">
    <rdf:RDF>
      <cc:Work
         rdf:about="">
        <dc:format>image/svg+xml</dc:format>
        <dc:type
           rdf:resource="http://purl.org/dc/dcmitype/StillImage" />
        <dc:title></dc:title>
      </cc:Work>
    </rdf:RDF>
  </metadata>
  <defs
     id="defs3764" />
  <sodipodi:namedview
     pagecolor="#ffffff"
     bordercolor="#666666"
     borderopacity="1"
     objecttolerance="10"
     gridtolerance="10"
     guidetolerance="10"
     inkscape:pageopacity="0"
     inkscape:pageshadow="2"
     inkscape:window-width="1920"
     inkscape:window-height="1017"
     id="namedview3762"
     showgrid="false"
     showborder="true"
     fit-margin-top="0"
     fit-margin-left="0"
     fit-margin-right="0"
     fit-margin-bottom="0"
     inkscape:zoom="9.1071429"
     inkscape:cx="27.307292"
     inkscape:cy="26.567701"
     inkscape:window-x="-8"
     inkscape:window-y="-8"
     inkscape:window-maximized="1"
     inkscape:current-layer="svg3760" />
  <g
     id="surface1"
     transform="translate(-14.519531,-14.519531)">
    <path
       style="fill:#e1e3e3;fill-opacity:1;fill-rule:nonzero;stroke:none"
       d="M 42.296875,42.925781 41.039062,42.296875 H 28.40625 l -1.257812,0.628906 7.574218,12 z m 0,0"
       id="path3713"
       inkscape:connector-curvature="0" />
    <path
       style="fill:#f8e1c2;fill-opacity:1;fill-rule:nonzero;stroke:none"
       d="m 44.1875,28.40625 c -0.628906,0 -0.628906,0.707031 -0.628906,0.707031 V 28.40625 c 0,-0.671875 -0.0078,-1.3125 -0.04297,-1.929688 -2.546875,-2.484374 -8.792969,-2.484374 -8.792969,-2.484374 0,0 -6.246094,0 -8.792968,2.484374 -0.03516,0.617188 -0.04688,1.257813 -0.04688,1.929688 v 5.050781 l 2.523438,6.316407 3.222656,2.523437 c 0.363282,0.402344 0.875,0.628906 1.417969,0.628906 h 3.351563 c 0.542968,0 1.054687,-0.226562 1.417968,-0.628906 l 3.222656,-2.523437 2.023438,-5.0625 c 1.789062,-0.128907 2.390625,-2.84375 2.390625,-4.898438 0,-0.699219 -0.628906,-1.40625 -1.265625,-1.40625 z m 0,0"
       id="path3715"
       inkscape:connector-curvature="0" />
    <path
       style="fill:#faf0e1;fill-opacity:1;fill-rule:nonzero;stroke:none"
       d="m 25.882812,28.40625 v 0.707031 c 0,0 0,-0.707031 -0.628906,-0.707031 -0.632812,0 -1.261718,0.707031 -1.261718,1.40625 0,2.050781 0.601562,4.769531 2.390624,4.898438 l 2.023438,5.0625 3.222656,2.523437 c 0.363282,0.402344 0.875,0.628906 1.417969,0.628906 h 1.675781 V 23.992188 c 0,0 -6.246094,0 -8.792968,2.484374 -0.03516,0.617188 -0.04688,1.257813 -0.04688,1.929688 z m 0,0"
       id="path3717"
       inkscape:connector-curvature="0" />
    <path
       style="fill:#f59191;fill-opacity:1;fill-rule:nonzero;stroke:none"
       d="m 31.566406,35.980469 h 6.3125 c 0,0 0,1.894531 -3.15625,1.894531 -3.15625,0 -3.15625,-1.894531 -3.15625,-1.894531 z m 0,0"
       id="path3719"
       inkscape:connector-curvature="0" />
    <path
       style="fill:#3d3d3d;fill-opacity:1;fill-rule:nonzero;stroke:none"
       d="m 38.507812,29.878906 c 0.753907,0 1.421876,0.167969 1.882813,0.421875 0.04297,-0.359375 -0.109375,-0.726562 -0.472656,-1.003906 -0.648438,-0.488281 -1.703125,-0.488281 -2.351563,0 -0.292968,0.222656 -0.453125,0.511719 -0.480468,0.796875 0.410156,-0.136719 0.898437,-0.214844 1.421874,-0.214844 z m 0,0"
       id="path3721"
       inkscape:connector-curvature="0" />
    <path
       style="fill:#3d3d3d;fill-opacity:1;fill-rule:nonzero;stroke:none"
       d="m 30.929688,29.878906 c -0.753907,0 -1.421876,0.167969 -1.882813,0.421875 -0.04297,-0.359375 0.109375,-0.726562 0.472656,-1.003906 0.652344,-0.488281 1.707031,-0.488281 2.359375,0 0.292969,0.222656 0.445313,0.511719 0.472656,0.796875 -0.40625,-0.136719 -0.894531,-0.214844 -1.421874,-0.214844 z m 0,0"
       id="path3723"
       inkscape:connector-curvature="0" />
    <path
       style="fill:#f3cfa1;fill-opacity:1;fill-rule:nonzero;stroke:none"
       d="m 36.398438,42.925781 h -3.351563 c -0.542969,0 -1.054687,-0.226562 -1.417969,-0.628906 L 28.40625,39.773438 v 2.835937 c 0,0 0,4.738281 6.316406,4.738281 6.316406,0 6.316406,-4.738281 6.316406,-4.738281 v -2.835937 l -3.222656,2.523437 c -0.363281,0.402344 -0.875,0.628906 -1.417968,0.628906 z m 0,0"
       id="path3725"
       inkscape:connector-curvature="0" />
    <path
       style="fill:#3d3d3d;fill-opacity:1;fill-rule:nonzero;stroke:none"
       d="m 34.722656,23.992188 c 0,0 -0.476562,0 -1.226562,0.04687 0,0.792969 0,2.679688 0,3.554688 2.347656,0 3.769531,-1.691406 4.59375,-3.304688 -1.847656,-0.296874 -3.367188,-0.296874 -3.367188,-0.296874 z m 0,0"
       id="path3727"
       inkscape:connector-curvature="0" />
    <path
       style="fill:#3d3d3d;fill-opacity:1;fill-rule:nonzero;stroke:none"
       d="m 28.988281,24.832031 c -1.195312,0.367188 -2.328125,0.90625 -3.105469,1.683594 0,2.234375 1.464844,3.3125 1.464844,3.3125 -0.183594,-1.867187 -0.195312,-3.082031 1.640625,-4.996094 z m 0,0"
       id="path3729"
       inkscape:connector-curvature="0" />
    <path
       style="fill:#3d3d3d;fill-opacity:1;fill-rule:nonzero;stroke:none"
       d="m 29.585938,24.65625 c 0,0.605469 0,1.769531 0,2.9375 1.8125,0 3.253906,-2.5625 3.738281,-3.539062 -0.988281,0.07812 -2.371094,0.246093 -3.738281,0.601562 z m 0,0"
       id="path3731"
       inkscape:connector-curvature="0" />
    <path
       style="fill:#3d3d3d;fill-opacity:1;fill-rule:nonzero;stroke:none"
       d="m 41.882812,25.378906 c 0,0.246094 0,2.855469 0,4.449219 1.574219,0 1.671876,-2.941406 1.675782,-3.3125 -0.453125,-0.457031 -1.035156,-0.828125 -1.675782,-1.136719 z m 0,0"
       id="path3733"
       inkscape:connector-curvature="0" />
    <path
       style="fill:#3d3d3d;fill-opacity:1;fill-rule:nonzero;stroke:none"
       d="m 39.089844,24.480469 c 0,1.066406 0,2.222656 0,3.113281 2.117187,0 2.730468,-2.003906 2.789062,-2.214844 -0.863281,-0.410156 -1.839844,-0.699218 -2.789062,-0.898437 z m 0,0"
       id="path3735"
       inkscape:connector-curvature="0" />
    <path
       style="fill:#f8e1c2;fill-opacity:1;fill-rule:nonzero;stroke:none"
       d="M 31.628906,42.296875 28.40625,39.773438 v 2.835937 c 0,0 0,4.738281 6.316406,4.738281 v -4.421875 h -1.675781 c -0.542969,0 -1.054687,-0.226562 -1.417969,-0.628906 z m 0,0"
       id="path3737"
       inkscape:connector-curvature="0" />
    <path
       style="fill:#fa5454;fill-opacity:1;fill-rule:nonzero;stroke:none"
       d="M 21.773438,33.742188 V 21.355469 c -0.441407,-0.160157 -0.863282,-0.308594 -1.261719,-0.460938 v 12.847657 c -1.648438,1.082031 -0.632813,4.320312 -0.632813,6.03125 0.628906,0 0.976563,0 1.167969,0 0.03516,0 0.07031,0 0.09375,0 0.08203,0 0.109375,0 0.105469,0 0.183594,0 0.53125,0 1.160156,0 0,-1.710938 1.015625,-4.949219 -0.632812,-6.03125 z m 0,0"
       id="path3739"
       inkscape:connector-curvature="0" />
    <path
       style="fill:#3d3d3d;fill-opacity:1;fill-rule:nonzero;stroke:none"
       d="m 51.769531,19.570312 c 0,-0.628906 -15.785156,-5.050781 -17.046875,-5.050781 -1.265625,0 -17.046875,4.421875 -17.046875,5.050781 0,0.394532 4.691407,2.023438 8.207031,3.1875 0,1.09375 0,2.382813 0,3.757813 2.523438,-2.523437 8.839844,-2.523437 8.839844,-2.523437 0,0 6.316406,0 8.835938,2.523437 0,-1.375 0,-2.664063 0,-3.757813 3.515625,-1.164062 8.210937,-2.792968 8.210937,-3.1875 z m 0,0"
       id="path3741"
       inkscape:connector-curvature="0" />
    <path
       style="fill:#ffffff;fill-opacity:1;fill-rule:nonzero;stroke:none"
       d="m 42.273438,42.96875 0.02344,-0.03906 -1.257813,-0.632813 -6.304687,3.144531 3.65625,3.679688 z m 0,0"
       id="path3743"
       inkscape:connector-curvature="0" />
    <path
       style="fill:#de2b2b;fill-opacity:1;fill-rule:nonzero;stroke:none"
       d="m 37.246094,54.925781 -1.765625,-6.441406 1.136719,-1.132813 -1.90625,-1.910156 -1.894532,1.890625 1.144532,1.148438 -1.761719,6.445312 z m 0,0"
       id="path3745"
       inkscape:connector-curvature="0" />
    <path
       style="fill:#fa5454;fill-opacity:1;fill-rule:nonzero;stroke:none"
       d="m 34.722656,54.925781 v -9.472656 l -0.01172,-0.01172 -1.894532,1.890625 1.144532,1.148438 -1.761719,6.445312 z m 0,0"
       id="path3747"
       inkscape:connector-curvature="0" />
    <path
       style="fill:#ffffff;fill-opacity:1;fill-rule:nonzero;stroke:none"
       d="m 27.171875,42.96875 -0.02344,-0.03906 1.257812,-0.632813 6.304688,3.144531 -3.65625,3.679688 z m 0,0"
       id="path3749"
       inkscape:connector-curvature="0" />
    <path
       style="fill:#3d3d3d;fill-opacity:1;fill-rule:nonzero;stroke:none"
       d="m 14.519531,54.925781 2.527344,-6.945312 c 0.382813,-0.839844 1.070313,-1.511719 1.921875,-1.882813 l 8.179688,-3.167968 7.574218,11.996093 z m 0,0"
       id="path3751"
       inkscape:connector-curvature="0" />
    <path
       style="fill:#3d3d3d;fill-opacity:1;fill-rule:nonzero;stroke:none"
       d="M 54.925781,54.925781 52.398438,47.980469 C 52.011719,47.140625 51.328125,46.46875 50.476562,46.097656 l -8.179687,-3.167968 -7.574219,11.996093 z m 0,0"
       id="path3753"
       inkscape:connector-curvature="0" />
    <path
       style="fill:#9c9e9e;fill-opacity:1;fill-rule:nonzero;stroke:none"
       d="m 34.722656,54.925781 -7.574218,-11.996093 -5.6875,1.894531 10.738281,10.101562 z m 0,0"
       id="path3755"
       inkscape:connector-curvature="0" />
    <path
       style="fill:#9c9e9e;fill-opacity:1;fill-rule:nonzero;stroke:none"
       d="m 34.722656,54.925781 7.574219,-11.996093 5.683594,1.894531 -10.734375,10.101562 z m 0,0"
       id="path3757"
       inkscape:connector-curvature="0" />
  </g>
</svg>
